<?xml version="1.0" encoding="utf-8"?>
<svg version="1.1" id="Layer_1" x="0px" y="0px" viewBox="0 0 1000.4 343.2" style="enable-background:new 0 0 2000 2000;" xmlns="http://www.w3.org/2000/svg">
  <style type="text/css">
	.st0{fill:#282DD6;}
	.st1{fill:#FFFFFF;}
	.st2{fill:#CC0000;}
	.st3{fill:#800080;}
</style>
  <g transform="matrix(1, 0, 0, 1, -499.799988, -828.390015)" style="transform-origin: 171.22px 828.39px;">
    <rect x="828.39" y="828.39" class="st0" width="14.63" height="343.22"/>
    <g>
      <path class="st1" d="M596.28,1040.05l0.55,54.83h-46.99v-24.09C567.89,1062.51,582.85,1051.61,596.28,1040.05z"/>
      <path class="st1" d="M585.28,981.91c-11.81,11.35-22.99,22.08-35.43,30.95V905.12h63.54l17.22,38.16 c-12.66,8.58-23.75,18.27-34.13,27.97l-0.92-2.08l0.03,2.92C592.09,975.37,588.66,978.65,585.28,981.91z"/>
      <path class="st1" d="M792.97,905.12v19.47c-17.81-6.63-38.47-10.69-63.19-10.69c-1.29,0-2.55,0.01-3.81,0.04l3.95-8.82H792.97z"/>
      <path class="st1" d="M729.78,964.06c26.51,0,46.31,6.16,63.19,15.91v114.92h-46.99l1.29-125.92l-56.34,125.92h-39.55l-33.27-74.94 c0.64-0.62,1.29-1.23,1.92-1.85c10.6-10.18,20.7-19.87,31.64-28.15l20.22,44.81l30.53-68.21 C710.72,964.93,719.77,964.06,729.78,964.06z"/>
      <path class="st1" d="M901.91,1066.95c13.35,7.01,28.41,12.62,45.92,15.92l-4.95,12.02h-53.4L901.91,1066.95z"/>
      <path class="st1" d="M1069.97,1003.82c-12.33,10.35-25.36,19.11-41.25,24.85l-29.23-71.27l-31.99,77.69 c-17.8-1.94-32.29-7.02-45.09-14.16l51.58-115.81H1026L1069.97,1003.82z"/>
      <path class="st1" d="M1110.53,1094.88h-54.65l-8.08-19.69c16.57-6.23,30.66-14.66,43.23-24.07L1110.53,1094.88z"/>
      <path class="st1" d="M1238.93,964.07c19.55,0.06,35.43,3.5,49.18,9.25v121.57h-49.18V964.07z"/>
      <path class="st1" d="M1348.06,1018.09c3.08,2.96,6.2,5.95,9.37,8.93c-0.8,0.03-1.61,0.04-2.42,0.04h-49.39v-45.15 C1305.63,981.92,1336.34,1006.85,1348.06,1018.09z"/>
      <path class="st1" d="M1418.24,966.34c0,13.98-4.15,27.04-11.77,37.34c-7.98-6.72-15.69-14.11-23.67-21.78 c-19.65-18.87-40.61-37.97-65.14-50.28c-23.04-11.56-48.47-17.06-74.17-17.66c-1.52-0.04-3.04-0.05-4.57-0.06v-8.79h115.58 c22.05,0,38.8,6.36,49.81,18.93C1413.42,934.45,1418.24,949.07,1418.24,966.34z"/>
    </g>
    <rect x="1156.98" y="828.39" class="st2" width="14.63" height="343.22"/>
    <g>
      <g>
        <path class="st3" d="M828.39,843.02v-14.63H499.8v343.22h328.58v-14.63H514.44V843.02H828.39z"/>
        <path class="st3" d="M814.58,1171.61h342.4v-14.63h-342.4V1171.61z M814.58,828.39v14.63h342.4v-14.63H814.58z"/>
        <path class="st3" d="M1137.05,828.39v14.63h348.51v313.96h-348.51v14.63h363.14V828.39H1137.05z"/>
      </g>
    </g>
  </g>
</svg>