<?xml version="1.0" encoding="utf-8"?>
<svg version="1.1" id="Layer_1" x="0px" y="0px" viewBox="0 0 1000.6 343.2" style="enable-background:new 0 0 2000 2000;" xmlns="http://www.w3.org/2000/svg">
  <style type="text/css">
	.st0{fill:#282DD6;}
	.st1{fill:#FFFFFF;}
	.st2{fill:#CC0000;}
	.st3{fill:#800080;}
</style>
  <g transform="matrix(1, 0, 0, 1, -171.220001, -828.390015)" style="transform-origin: 171.22px 828.39px;">
    <rect x="828.39" y="828.39" class="st0" width="14.63" height="343.22"/>
    <g>
      <path class="st1" d="M378.73,1058.29l-16.38,36.6H322.8L268.32,972.2l-1.34-3l0.02,2.51l1.25,123.18h-46.98V905.12h63.53 l10.89,24.13l36.11,74.85c10.13,21,25.36,39.19,44.48,52.53C377.12,1057.22,377.94,1057.77,378.73,1058.29z"/>
      <path class="st1" d="M464.39,905.12v130.44c-18.31-1.29-33.2-5.76-46.26-12.38l0.55-54.2l-19.1,42.7 c-11.5-8.42-24.77-21.84-31.52-32.2l33.28-74.36H464.39z"/>
      <path class="st1" d="M417.58,1077.27c13.76,4.58,29.2,7.64,46.81,8.55v9.07H417.4L417.58,1077.27z"/>
      <path class="st1" d="M596.28,1040.05l0.55,54.83h-46.99v-24.09C567.89,1062.51,582.85,1051.61,596.28,1040.05z"/>
      <path class="st1" d="M585.28,981.91c-11.81,11.35-22.99,22.08-35.43,30.95V905.12h63.54l17.22,38.16 c-12.66,8.58-23.75,18.27-34.13,27.97l-0.92-2.08l0.03,2.92C592.09,975.37,588.66,978.65,585.28,981.91z"/>
      <path class="st1" d="M792.97,905.12v19.47c-17.81-6.63-38.47-10.69-63.19-10.69c-1.29,0-2.55,0.01-3.81,0.04l3.95-8.82H792.97z"/>
      <path class="st1" d="M729.78,964.06c26.51,0,46.31,6.16,63.19,15.91v114.92h-46.99l1.29-125.92l-56.34,125.92h-39.55l-33.27-74.94 c0.64-0.62,1.29-1.23,1.92-1.85c10.6-10.18,20.7-19.87,31.64-28.15l20.22,44.81l30.53-68.21 C710.72,964.93,719.77,964.06,729.78,964.06z"/>
      <path class="st1" d="M901.91,1066.95c13.35,7.01,28.41,12.62,45.92,15.92l-4.95,12.02h-53.4L901.91,1066.95z"/>
      <path class="st1" d="M1069.97,1003.82c-12.33,10.35-25.36,19.11-41.25,24.85l-29.23-71.27l-31.99,77.69 c-17.8-1.94-32.29-7.02-45.09-14.16l51.58-115.81H1026L1069.97,1003.82z"/>
      <path class="st1" d="M1110.53,1094.88h-54.65l-8.08-19.69c16.57-6.23,30.66-14.66,43.23-24.07L1110.53,1094.88z"/>
    </g>
    <g>
      <path class="st2" d="M514.44,1171.61H171.22V828.39h343.22V1171.61z M185.85,1156.98h313.96V843.02H185.85V1156.98z"/>
    </g>
    <g>
      <g>
        <path class="st0" d="M 1171.78 1171.61 L 828.56 1171.61 L 828.56 828.39 L 1171.78 828.39 L 1171.78 1171.61 Z M 843.19 1156.98 L 1157.15 1156.98 L 1157.15 843.02 L 843.19 843.02 L 843.19 1156.98 Z"/>
      </g>
    </g>
    <g>
      <g>
        <path class="st3" d="M 843.19 828.39 L 843.19 1171.61 L 499.8 1171.61 L 499.8 828.39 Z M 828.56 1156.98 L 828.56 843.02 L 514.44 843.02 L 514.44 1156.98 Z"/>
      </g>
    </g>
  </g>
</svg>