<?xml version="1.0" encoding="utf-8"?>
<!-- Generator: Adobe Illustrator 28.0.0, SVG Export Plug-In . SVG Version: 6.00 Build 0)  -->
<svg version="1.1" id="Layer_1" xmlns="http://www.w3.org/2000/svg" xmlns:xlink="http://www.w3.org/1999/xlink" x="0px" y="0px"
	 viewBox="0 0 1657.6 343.2" style="enable-background:new 0 0 1657.6 343.2;" xml:space="preserve">
<style type="text/css">
	.st0{fill-opacity:0.6;}
	.st1{fill:#282DD6;}
	.st2{fill:#FFFFFF;}
	.st3{fill:#CC0000;}
	.st4{fill:#800080;}
</style>
<g transform="matrix(1, 0, 0, 1, -171.220001, -828.390015)">
	<rect x="177" y="835.7" class="st0" width="1643.7" height="328.6"/>
	<rect x="828.4" y="828.4" class="st1" width="14.6" height="343.2"/>
	<g>
		<path class="st2" d="M378.7,1058.3l-16.4,36.6h-39.6l-54.5-122.7l-1.3-3v2.5l1.2,123.2h-47V905.1h63.5l10.9,24.1l36.1,74.8
			c10.1,21,25.4,39.2,44.5,52.5C377.1,1057.2,377.9,1057.8,378.7,1058.3z"/>
		<path class="st2" d="M464.4,905.1v130.4c-18.3-1.3-33.2-5.8-46.3-12.4l0.5-54.2l-19.1,42.7c-11.5-8.4-24.8-21.8-31.5-32.2
			l33.3-74.4L464.4,905.1L464.4,905.1z"/>
		<path class="st2" d="M417.6,1077.3c13.8,4.6,29.2,7.6,46.8,8.6v9.1h-47L417.6,1077.3z"/>
		<path class="st2" d="M596.3,1040.1l0.5,54.8h-47v-24.1C567.9,1062.5,582.8,1051.6,596.3,1040.1z"/>
		<path class="st2" d="M585.3,981.9c-11.8,11.3-23,22.1-35.4,31V905.1h63.5l17.2,38.2c-12.7,8.6-23.8,18.3-34.1,28l-0.9-2.1v2.9
			C592.1,975.4,588.7,978.7,585.3,981.9z"/>
		<path class="st2" d="M793,905.1v19.5c-17.8-6.6-38.5-10.7-63.2-10.7c-1.3,0-2.5,0-3.8,0l4-8.8H793L793,905.1z"/>
		<path class="st2" d="M729.8,964.1c26.5,0,46.3,6.2,63.2,15.9v114.9h-47l1.3-125.9L691,1094.9h-39.5l-33.3-74.9
			c0.6-0.6,1.3-1.2,1.9-1.8c10.6-10.2,20.7-19.9,31.6-28.2l20.2,44.8l30.5-68.2C710.7,964.9,719.8,964.1,729.8,964.1z"/>
		<path class="st2" d="M901.9,1066.9c13.3,7,28.4,12.6,45.9,15.9l-5,12h-53.4L901.9,1066.9z"/>
		<path class="st2" d="M1070,1003.8c-12.3,10.3-25.4,19.1-41.2,24.9l-29.2-71.3l-32,77.7c-17.8-1.9-32.3-7-45.1-14.2L974,905.1h52
			L1070,1003.8z"/>
		<path class="st2" d="M1110.5,1094.9h-54.7l-8.1-19.7c16.6-6.2,30.7-14.7,43.2-24.1L1110.5,1094.9z"/>
		<path class="st2" d="M1238.9,964.1c19.6,0.1,35.4,3.5,49.2,9.2v121.6h-49.2V964.1z"/>
		<path class="st2" d="M1348.1,1018.1c3.1,3,6.2,6,9.4,8.9c-0.8,0-1.6,0-2.4,0h-49.4v-45.2
			C1305.6,981.9,1336.3,1006.8,1348.1,1018.1z"/>
		<path class="st2" d="M1418.2,966.3c0,14-4.2,27-11.8,37.3c-8-6.7-15.7-14.1-23.7-21.8c-19.7-18.9-40.6-38-65.1-50.3
			c-23-11.6-48.5-17.1-74.2-17.7c-1.5,0-3,0-4.6-0.1v-8.8h115.6c22.1,0,38.8,6.4,49.8,18.9C1413.4,934.5,1418.2,949.1,1418.2,966.3z
			"/>
		<path class="st2" d="M1645.4,944.8h-28.8v150.1h-49.2V905.1H1683c16.1,0,29.4,3.4,39.7,10.2
			C1690.4,919.1,1665.9,930.5,1645.4,944.8z"/>
		<path class="st2" d="M1746.8,966.3c0,16-5.4,30.8-15.3,41.7c-11.3,12.5-27.9,19.1-47.9,19.1h-49.4c0,0,44.2-54.4,91.5-61.6
			c7-1.1,14-1.4,21.1-1.4C1746.8,964.8,1746.8,965.6,1746.8,966.3z"/>
	</g>
	<g>
		<path class="st3" d="M514.4,1171.6H171.2V828.4h343.2V1171.6z M185.9,1157h314V843h-314V1157z"/>
	</g>
	<g>
		<g>
			<path class="st1" d="M1828.8,1171.6h-343.2V828.4h343.2V1171.6z M1500.2,1157h314V843h-314V1157z"/>
		</g>
	</g>
	<rect x="1157" y="828.4" class="st3" width="14.6" height="343.2"/>
	<g>
		<g>
			<path class="st4" d="M828.4,843v-14.6H499.8v343.2h328.6V1157h-314V843H828.4z"/>
			<path class="st4" d="M814.6,1171.6H1157V1157H814.6V1171.6L814.6,1171.6z M814.6,828.4V843H1157v-14.6H814.6z"/>
			<path class="st4" d="M1137.1,828.4V843h348.5v314h-348.5v14.6h363.1V828.4H1137.1z"/>
		</g>
	</g>
</g>
</svg>
