<?xml version="1.0" encoding="utf-8"?>
<!-- Generator: Adobe Illustrator 28.0.0, SVG Export Plug-In . SVG Version: 6.00 Build 0)  -->
<svg version="1.1" id="Layer_1" xmlns="http://www.w3.org/2000/svg" xmlns:xlink="http://www.w3.org/1999/xlink" x="0px" y="0px"
	 viewBox="0 0 343.2 343.2" style="enable-background:new 0 0 343.2 343.2;" xml:space="preserve">
<style type="text/css">
	.st0{fill:#FFFFFF;}
	.st1{fill:#800080;}
</style>
<g transform="matrix(1, 0, 0, 1, -171.220001, -828.390015)">
	<rect x="177.2" y="835.4" width="328.5" height="328.5"/>
	<g>
		<path class="st0" d="M378.7,1058.3l-16.4,36.6h-39.6l-54.5-122.7l-1.3-3l0,2.5l1.2,123.2h-47V905.1h63.5l10.9,24.1l36.1,74.8
			c10.1,21,25.4,39.2,44.5,52.5C377.1,1057.2,377.9,1057.8,378.7,1058.3z"/>
		<path class="st0" d="M464.4,905.1v130.4c-18.3-1.3-33.2-5.8-46.3-12.4l0.5-54.2l-19.1,42.7c-11.5-8.4-24.8-21.8-31.5-32.2
			l33.3-74.4L464.4,905.1L464.4,905.1z"/>
		<path class="st0" d="M417.6,1077.3c13.8,4.6,29.2,7.6,46.8,8.6v9.1h-47L417.6,1077.3z"/>
	</g>
	<g>
		<path class="st1" d="M514.4,1171.6H171.2V828.4h343.2V1171.6z M185.9,1157h314V843h-314V1157z"/>
	</g>
	<g>
		<g>
			<path class="st1" d="M514.4,1157V843"/>
			<path class="st1" d="M499.8,828.4v343.2"/>
		</g>
	</g>
</g>
</svg>
