<?xml version="1.0" encoding="utf-8"?>
<svg viewBox="0 0 24 24" fill="currentColor" xmlns="http://www.w3.org/2000/svg">
  <path d="M17.5858 5H14V3H21V10H19V6.41421L14.7071 10.7071L13.2929 9.29289L17.5858 5ZM3 14H5V17.5858L9.29289 13.2929L10.7071 14.7071L6.41421 19H10V21H3V14Z" style="fill: rgb(99, 31, 153);"/>
  <path d="M 6.414 5 L 10 5 L 10 3 L 3 3 L 3 10 L 5 10 L 5 6.414 L 9.292 10.707 L 10.707 9.292 L 6.414 5 Z M 21 14 L 19 14 L 19 17.585 L 14.707 13.292 L 13.292 14.707 L 17.585 19 L 14 19 L 14 21 L 21 21 L 21 14 Z" style="fill: rgb(99, 31, 153);"/>
</svg>