<?xml version="1.0" encoding="utf-8"?>
<svg viewBox="0 0 24 24" fill="currentColor" xmlns="http://www.w3.org/2000/svg">
  <path d="M 9.973 17.5 L 14.027 17.5 C 14.159 16.298 14.772 15.307 15.768 14.223 C 15.88 14.101 16.599 13.356 16.684 13.25 C 17.532 12.193 18 10.885 18 9.5 C 18 6.186 15.314 3.5 12 3.5 C 8.686 3.5 6 6.186 6 9.5 C 6 10.884 6.468 12.192 7.315 13.248 C 7.4 13.355 8.121 14.101 8.232 14.222 C 9.228 15.306 9.841 16.298 9.973 17.5 Z M 14 19.5 L 10 19.5 L 10 20.5 L 14 20.5 L 14 19.5 Z M 5.754 14.499 C 4.656 13.13 4 11.392 4 9.5 C 4 5.082 7.582 1.5 12 1.5 C 16.418 1.5 20 5.082 20 9.5 C 20 11.393 19.343 13.131 18.244 14.501 C 17.624 15.275 16 16.5 16 18 L 16 20.5 C 16 21.605 15.105 22.5 14 22.5 L 10 22.5 C 8.895 22.5 8 21.605 8 20.5 L 8 18 C 8 16.5 6.375 15.274 5.754 14.499 Z M 13 9.505 L 15.5 9.505 L 11 15.505 L 11 11.505 L 8.5 11.505 L 13 5.5 L 13 9.505 Z" style="fill: rgb(255, 255, 255);"/>
</svg>