<?xml version="1.0" encoding="utf-8"?>
<svg viewBox="0 0 1387.11 1420.63" xmlns="http://www.w3.org/2000/svg" xmlns:xlink="http://www.w3.org/1999/xlink">
  <defs>
    <clipPath id="clippath">
      <path d="m1385.18,300.68C1212.54,115.68,966.56,0,693.55,0S174.57,115.67,1.93,300.68c-1.28,22.21-1.93,44.59-1.93,67.12,0,472.13,285.65,877.54,693.56,1052.84,407.9-175.3,693.55-580.71,693.55-1052.84,0-22.53-.65-44.91-1.93-67.11" style="clip-rule: evenodd; fill: none; strokeWidth: 0px;"/>
    </clipPath>
    <linearGradient id="linear-gradient" x1="450.02" y1="1067.12" x2="1192.46" y2="-20.64" gradientUnits="userSpaceOnUse">
      <stop offset="0" style="stop-color: rgb(51, 0, 51);"/>
      <stop offset="1" style="stop-color: rgb(153, 0, 153);"/>
    </linearGradient>
    <clipPath id="clippath-1">
      <path d="m1385.18,300.68L90.93,815.81c115.31,271.05,332.07,488.55,602.62,604.82,407.91-175.3,693.55-580.71,693.55-1052.84,0-22.52-.65-44.9-1.93-67.11" style="clip-rule: evenodd; fill: none; strokeWidth: 0px;"/>
    </clipPath>
    <linearGradient id="linear-gradient-2" x1="381.04" y1="1295.11" x2="1330.68" y2="142.59" gradientUnits="userSpaceOnUse">
      <stop offset="0" style="stop-color: rgb(56, 9, 92);"/>
      <stop offset="1" style="stop-color: rgb(99, 31, 153);"/>
    </linearGradient>
    <mask id="mask" x="90.93" y="300.68" width="1296.18" height="615.08" maskUnits="userSpaceOnUse">
      <rect x="90.93" y="300.68" width="1296.18" height="615.08" style="fill: url(#linear-gradient-3); strokeWidth: 0px;"/>
    </mask>
    <linearGradient id="linear-gradient-3" x1="1930.72" y1="54.37" x2="-79.49" y2="1143" gradientTransform="translate(96.12 -143.57)" gradientUnits="userSpaceOnUse">
      <stop offset="0" stop-color="#fff"/>
      <stop offset="1" stop-color="#000"/>
    </linearGradient>
    <mask id="mask-1" x="0" y="165.71" width="1385.18" height="650.1" maskUnits="userSpaceOnUse">
      <rect y="165.71" width="1385.18" height="650.1" style="fill: url(#linear-gradient-4); strokeWidth: 0px;"/>
    </mask>
    <linearGradient id="linear-gradient-4" x1="-103.61" y1="1913.92" x2="1016.67" y2="-104.36" gradientTransform="translate(89.8 -150.52)" xlink:href="#linear-gradient-3"/>
  </defs>
  <g style="clipPath: url('#clippath'); pointer-events: none;">
    <rect width="1387.11" height="1420.63" style="fill: url('#linear-gradient'); strokeWidth: 0px;"/>
  </g>
  <g style="clipPath: url('#clippath-1');">
    <rect x="90.93" y="300.68" width="1296.18" height="1119.95" style="fill: url(#linear-gradient-2); strokeWidth: 0px;"/>
  </g>
  <g style="mask: url('#mask');">
    <path d="m90.93,815.81c1304.24-488.24,1156.85,99.94,1156.85,99.94,88.84-162.77,139.33-349.47,139.33-547.97,0-22.52-.65-44.9-1.93-67.11L90.93,815.81Z" style="fill: #fff; fill-rule: evenodd; strokeWidth: 0px;"/>
  </g>
  <g style="mask: url('#mask-1'); pointer-events: none;">
    <path d="m1385.18,300.68S-197.66,890.64,158.61,165.71C101.56,204.92,49.02,250.22,1.93,300.68c-1.28,22.21-1.93,44.59-1.93,67.11,0,158.98,32.39,310.41,90.93,448.02L1385.18,300.68Z" style="fill-rule: evenodd; strokeWidth: 0px; fill: rgb(51, 0, 51);"/>
  </g>
</svg>